<mxfile host="app.diagrams.net" agent="Mozilla/5.0 (Windows NT 10.0; Win64; x64) AppleWebKit/537.36 (KHTML, like Gecko) Chrome/140.0.0.0 Safari/537.36" version="28.0.9">
  <diagram id="C5RBs43oDa-KdzZeNtuy" name="Page-1">
    <mxGraphModel dx="1428" dy="589" grid="1" gridSize="10" guides="1" tooltips="1" connect="1" arrows="1" fold="1" page="1" pageScale="1" pageWidth="1169" pageHeight="827" math="0" shadow="0">
      <root>
        <mxCell id="WIyWlLk6GJQsqaUBKTNV-0" />
        <mxCell id="WIyWlLk6GJQsqaUBKTNV-1" parent="WIyWlLk6GJQsqaUBKTNV-0" />
        <mxCell id="4hg4gvIcncpDd8z1N-48-54" style="edgeStyle=orthogonalEdgeStyle;rounded=0;orthogonalLoop=1;jettySize=auto;html=1;exitX=0.5;exitY=0;exitDx=0;exitDy=0;" edge="1" parent="WIyWlLk6GJQsqaUBKTNV-1" source="4hg4gvIcncpDd8z1N-48-1">
          <mxGeometry relative="1" as="geometry">
            <mxPoint x="684" y="535" as="targetPoint" />
          </mxGeometry>
        </mxCell>
        <mxCell id="4hg4gvIcncpDd8z1N-48-1" value="Lebensmittel" style="swimlane;fontStyle=1;align=center;verticalAlign=top;childLayout=stackLayout;horizontal=1;startSize=26;horizontalStack=0;resizeParent=1;resizeParentMax=0;resizeLast=0;collapsible=1;marginBottom=0;whiteSpace=wrap;html=1;" vertex="1" parent="WIyWlLk6GJQsqaUBKTNV-1">
          <mxGeometry x="404" y="605" width="200" height="78" as="geometry" />
        </mxCell>
        <mxCell id="4hg4gvIcncpDd8z1N-48-2" value="- gewicht : float" style="text;strokeColor=none;fillColor=none;align=left;verticalAlign=top;spacingLeft=4;spacingRight=4;overflow=hidden;rotatable=0;points=[[0,0.5],[1,0.5]];portConstraint=eastwest;whiteSpace=wrap;html=1;" vertex="1" parent="4hg4gvIcncpDd8z1N-48-1">
          <mxGeometry y="26" width="200" height="26" as="geometry" />
        </mxCell>
        <mxCell id="4hg4gvIcncpDd8z1N-48-3" value="- zusammensetzung : string" style="text;strokeColor=none;fillColor=none;align=left;verticalAlign=top;spacingLeft=4;spacingRight=4;overflow=hidden;rotatable=0;points=[[0,0.5],[1,0.5]];portConstraint=eastwest;whiteSpace=wrap;html=1;" vertex="1" parent="4hg4gvIcncpDd8z1N-48-1">
          <mxGeometry y="52" width="200" height="26" as="geometry" />
        </mxCell>
        <mxCell id="4hg4gvIcncpDd8z1N-48-55" style="edgeStyle=orthogonalEdgeStyle;rounded=0;orthogonalLoop=1;jettySize=auto;html=1;exitX=0.5;exitY=0;exitDx=0;exitDy=0;" edge="1" parent="WIyWlLk6GJQsqaUBKTNV-1" source="4hg4gvIcncpDd8z1N-48-6">
          <mxGeometry relative="1" as="geometry">
            <mxPoint x="684" y="535" as="targetPoint" />
          </mxGeometry>
        </mxCell>
        <mxCell id="4hg4gvIcncpDd8z1N-48-6" value="Haushaltsware" style="swimlane;fontStyle=1;align=center;verticalAlign=top;childLayout=stackLayout;horizontal=1;startSize=26;horizontalStack=0;resizeParent=1;resizeParentMax=0;resizeLast=0;collapsible=1;marginBottom=0;whiteSpace=wrap;html=1;" vertex="1" parent="WIyWlLk6GJQsqaUBKTNV-1">
          <mxGeometry x="774" y="605" width="160" height="78" as="geometry" />
        </mxCell>
        <mxCell id="4hg4gvIcncpDd8z1N-48-7" value="- garantie_bis : date" style="text;strokeColor=none;fillColor=none;align=left;verticalAlign=top;spacingLeft=4;spacingRight=4;overflow=hidden;rotatable=0;points=[[0,0.5],[1,0.5]];portConstraint=eastwest;whiteSpace=wrap;html=1;" vertex="1" parent="4hg4gvIcncpDd8z1N-48-6">
          <mxGeometry y="26" width="160" height="26" as="geometry" />
        </mxCell>
        <mxCell id="4hg4gvIcncpDd8z1N-48-8" value="- farbe : string" style="text;strokeColor=none;fillColor=none;align=left;verticalAlign=top;spacingLeft=4;spacingRight=4;overflow=hidden;rotatable=0;points=[[0,0.5],[1,0.5]];portConstraint=eastwest;whiteSpace=wrap;html=1;" vertex="1" parent="4hg4gvIcncpDd8z1N-48-6">
          <mxGeometry y="52" width="160" height="26" as="geometry" />
        </mxCell>
        <mxCell id="4hg4gvIcncpDd8z1N-48-11" value="Artikel" style="swimlane;fontStyle=1;align=center;verticalAlign=top;childLayout=stackLayout;horizontal=1;startSize=26;horizontalStack=0;resizeParent=1;resizeParentMax=0;resizeLast=0;collapsible=1;marginBottom=0;whiteSpace=wrap;html=1;" vertex="1" parent="WIyWlLk6GJQsqaUBKTNV-1">
          <mxGeometry x="584" y="398" width="180" height="136" as="geometry" />
        </mxCell>
        <mxCell id="4hg4gvIcncpDd8z1N-48-12" value="- artikelnummer : int" style="text;strokeColor=none;fillColor=none;align=left;verticalAlign=top;spacingLeft=4;spacingRight=4;overflow=hidden;rotatable=0;points=[[0,0.5],[1,0.5]];portConstraint=eastwest;whiteSpace=wrap;html=1;" vertex="1" parent="4hg4gvIcncpDd8z1N-48-11">
          <mxGeometry y="26" width="180" height="26" as="geometry" />
        </mxCell>
        <mxCell id="4hg4gvIcncpDd8z1N-48-13" value="- bezeichnung : string" style="text;strokeColor=none;fillColor=none;align=left;verticalAlign=top;spacingLeft=4;spacingRight=4;overflow=hidden;rotatable=0;points=[[0,0.5],[1,0.5]];portConstraint=eastwest;whiteSpace=wrap;html=1;" vertex="1" parent="4hg4gvIcncpDd8z1N-48-11">
          <mxGeometry y="52" width="180" height="26" as="geometry" />
        </mxCell>
        <mxCell id="4hg4gvIcncpDd8z1N-48-14" value="- preis : string" style="text;strokeColor=none;fillColor=none;align=left;verticalAlign=top;spacingLeft=4;spacingRight=4;overflow=hidden;rotatable=0;points=[[0,0.5],[1,0.5]];portConstraint=eastwest;whiteSpace=wrap;html=1;" vertex="1" parent="4hg4gvIcncpDd8z1N-48-11">
          <mxGeometry y="78" width="180" height="26" as="geometry" />
        </mxCell>
        <mxCell id="4hg4gvIcncpDd8z1N-48-17" value="- beschreibung : string" style="text;strokeColor=none;fillColor=none;align=left;verticalAlign=top;spacingLeft=4;spacingRight=4;overflow=hidden;rotatable=0;points=[[0,0.5],[1,0.5]];portConstraint=eastwest;whiteSpace=wrap;html=1;" vertex="1" parent="4hg4gvIcncpDd8z1N-48-11">
          <mxGeometry y="104" width="180" height="32" as="geometry" />
        </mxCell>
        <mxCell id="4hg4gvIcncpDd8z1N-48-18" value="Katalog" style="swimlane;fontStyle=1;align=center;verticalAlign=top;childLayout=stackLayout;horizontal=1;startSize=26;horizontalStack=0;resizeParent=1;resizeParentMax=0;resizeLast=0;collapsible=1;marginBottom=0;whiteSpace=wrap;html=1;" vertex="1" parent="WIyWlLk6GJQsqaUBKTNV-1">
          <mxGeometry x="284" y="398" width="160" height="78" as="geometry">
            <mxRectangle x="339" y="585" width="80" height="30" as="alternateBounds" />
          </mxGeometry>
        </mxCell>
        <mxCell id="4hg4gvIcncpDd8z1N-48-19" value="- katalog_id: int" style="text;strokeColor=none;fillColor=none;align=left;verticalAlign=top;spacingLeft=4;spacingRight=4;overflow=hidden;rotatable=0;points=[[0,0.5],[1,0.5]];portConstraint=eastwest;whiteSpace=wrap;html=1;" vertex="1" parent="4hg4gvIcncpDd8z1N-48-18">
          <mxGeometry y="26" width="160" height="26" as="geometry" />
        </mxCell>
        <mxCell id="4hg4gvIcncpDd8z1N-48-110" value="- katalog_name: string" style="text;strokeColor=none;fillColor=none;align=left;verticalAlign=top;spacingLeft=4;spacingRight=4;overflow=hidden;rotatable=0;points=[[0,0.5],[1,0.5]];portConstraint=eastwest;whiteSpace=wrap;html=1;" vertex="1" parent="4hg4gvIcncpDd8z1N-48-18">
          <mxGeometry y="52" width="160" height="26" as="geometry" />
        </mxCell>
        <mxCell id="4hg4gvIcncpDd8z1N-48-22" value="Lieferservice" style="swimlane;fontStyle=1;align=center;verticalAlign=top;childLayout=stackLayout;horizontal=1;startSize=26;horizontalStack=0;resizeParent=1;resizeParentMax=0;resizeLast=0;collapsible=1;marginBottom=0;whiteSpace=wrap;html=1;" vertex="1" parent="WIyWlLk6GJQsqaUBKTNV-1">
          <mxGeometry x="290" y="160" width="160" height="104" as="geometry" />
        </mxCell>
        <mxCell id="4hg4gvIcncpDd8z1N-48-23" value="- service_id : int" style="text;strokeColor=none;fillColor=none;align=left;verticalAlign=top;spacingLeft=4;spacingRight=4;overflow=hidden;rotatable=0;points=[[0,0.5],[1,0.5]];portConstraint=eastwest;whiteSpace=wrap;html=1;" vertex="1" parent="4hg4gvIcncpDd8z1N-48-22">
          <mxGeometry y="26" width="160" height="26" as="geometry" />
        </mxCell>
        <mxCell id="4hg4gvIcncpDd8z1N-48-113" value="- service_name : string" style="text;strokeColor=none;fillColor=none;align=left;verticalAlign=top;spacingLeft=4;spacingRight=4;overflow=hidden;rotatable=0;points=[[0,0.5],[1,0.5]];portConstraint=eastwest;whiteSpace=wrap;html=1;" vertex="1" parent="4hg4gvIcncpDd8z1N-48-22">
          <mxGeometry y="52" width="160" height="26" as="geometry" />
        </mxCell>
        <mxCell id="4hg4gvIcncpDd8z1N-48-114" value="- adresse : string" style="text;strokeColor=none;fillColor=none;align=left;verticalAlign=top;spacingLeft=4;spacingRight=4;overflow=hidden;rotatable=0;points=[[0,0.5],[1,0.5]];portConstraint=eastwest;whiteSpace=wrap;html=1;" vertex="1" parent="4hg4gvIcncpDd8z1N-48-22">
          <mxGeometry y="78" width="160" height="26" as="geometry" />
        </mxCell>
        <mxCell id="4hg4gvIcncpDd8z1N-48-33" value="1...*" style="text;html=1;align=center;verticalAlign=middle;resizable=0;points=[];autosize=1;strokeColor=none;fillColor=none;" vertex="1" parent="WIyWlLk6GJQsqaUBKTNV-1">
          <mxGeometry x="444" y="411" width="40" height="30" as="geometry" />
        </mxCell>
        <mxCell id="4hg4gvIcncpDd8z1N-48-37" value="1...*" style="text;html=1;align=center;verticalAlign=middle;resizable=0;points=[];autosize=1;strokeColor=none;fillColor=none;" vertex="1" parent="WIyWlLk6GJQsqaUBKTNV-1">
          <mxGeometry x="324" y="370" width="40" height="30" as="geometry" />
        </mxCell>
        <mxCell id="4hg4gvIcncpDd8z1N-48-44" value="1...*" style="text;html=1;align=center;verticalAlign=middle;resizable=0;points=[];autosize=1;strokeColor=none;fillColor=none;" vertex="1" parent="WIyWlLk6GJQsqaUBKTNV-1">
          <mxGeometry x="544" y="411" width="40" height="30" as="geometry" />
        </mxCell>
        <mxCell id="4hg4gvIcncpDd8z1N-48-49" value="1" style="text;html=1;align=center;verticalAlign=middle;resizable=0;points=[];autosize=1;strokeColor=none;fillColor=none;" vertex="1" parent="WIyWlLk6GJQsqaUBKTNV-1">
          <mxGeometry x="329" y="290" width="30" height="30" as="geometry" />
        </mxCell>
        <mxCell id="4hg4gvIcncpDd8z1N-48-56" value="Vererbung" style="text;html=1;align=center;verticalAlign=middle;whiteSpace=wrap;rounded=0;fillColor=#dae8fc;strokeColor=#6c8ebf;" vertex="1" parent="WIyWlLk6GJQsqaUBKTNV-1">
          <mxGeometry x="653" y="585" width="60" height="30" as="geometry" />
        </mxCell>
        <mxCell id="4hg4gvIcncpDd8z1N-48-57" value="{complete, disjoint}" style="text;html=1;align=center;verticalAlign=middle;whiteSpace=wrap;rounded=0;" vertex="1" parent="WIyWlLk6GJQsqaUBKTNV-1">
          <mxGeometry x="674" y="545" width="130" height="30" as="geometry" />
        </mxCell>
        <mxCell id="4hg4gvIcncpDd8z1N-48-60" value="&lt;b&gt;&lt;font style=&quot;font-size: 19px;&quot;&gt;Lieferservice&lt;/font&gt;&lt;/b&gt;" style="text;html=1;align=center;verticalAlign=middle;whiteSpace=wrap;rounded=0;" vertex="1" parent="WIyWlLk6GJQsqaUBKTNV-1">
          <mxGeometry x="530" y="80" width="170" height="30" as="geometry" />
        </mxCell>
        <mxCell id="4hg4gvIcncpDd8z1N-48-62" value="3) Artikel bestehen aus einer Artikelnummer, einer Bezeichnung, einem Preis in Euro und einer Beschreibung in Form von Text als auch Bildern." style="text;html=1;align=center;verticalAlign=middle;whiteSpace=wrap;rounded=0;fillColor=#fff2cc;strokeColor=#d6b656;" vertex="1" parent="WIyWlLk6GJQsqaUBKTNV-1">
          <mxGeometry x="783" y="320" width="370" height="60" as="geometry" />
        </mxCell>
        <mxCell id="4hg4gvIcncpDd8z1N-48-75" value="1) Der Lieferservice bietet Lebensmittel mit den Attributen Gewicht und Zusammensetzung sowie Haushaltswaren mit Garantie und Farbe an. " style="text;html=1;align=center;verticalAlign=middle;whiteSpace=wrap;rounded=0;fillColor=#fff2cc;strokeColor=#d6b656;" vertex="1" parent="WIyWlLk6GJQsqaUBKTNV-1">
          <mxGeometry x="499" y="705" width="370" height="60" as="geometry" />
        </mxCell>
        <mxCell id="4hg4gvIcncpDd8z1N-48-78" value="Preis: Währung als Kommentar und als float??" style="text;html=1;align=center;verticalAlign=middle;whiteSpace=wrap;rounded=0;fillColor=#f8cecc;strokeColor=#b85450;" vertex="1" parent="WIyWlLk6GJQsqaUBKTNV-1">
          <mxGeometry x="869" y="523" width="160" height="52" as="geometry" />
        </mxCell>
        <mxCell id="4hg4gvIcncpDd8z1N-48-91" value="Bild" style="swimlane;fontStyle=1;align=center;verticalAlign=top;childLayout=stackLayout;horizontal=1;startSize=26;horizontalStack=0;resizeParent=1;resizeParentMax=0;resizeLast=0;collapsible=1;marginBottom=0;whiteSpace=wrap;html=1;" vertex="1" parent="WIyWlLk6GJQsqaUBKTNV-1">
          <mxGeometry x="904" y="411" width="160" height="104" as="geometry" />
        </mxCell>
        <mxCell id="4hg4gvIcncpDd8z1N-48-92" value="- bild_id : int" style="text;strokeColor=none;fillColor=none;align=left;verticalAlign=top;spacingLeft=4;spacingRight=4;overflow=hidden;rotatable=0;points=[[0,0.5],[1,0.5]];portConstraint=eastwest;whiteSpace=wrap;html=1;" vertex="1" parent="4hg4gvIcncpDd8z1N-48-91">
          <mxGeometry y="26" width="160" height="26" as="geometry" />
        </mxCell>
        <mxCell id="4hg4gvIcncpDd8z1N-48-93" value="- dateipfad : string" style="text;strokeColor=none;fillColor=none;align=left;verticalAlign=top;spacingLeft=4;spacingRight=4;overflow=hidden;rotatable=0;points=[[0,0.5],[1,0.5]];portConstraint=eastwest;whiteSpace=wrap;html=1;" vertex="1" parent="4hg4gvIcncpDd8z1N-48-91">
          <mxGeometry y="52" width="160" height="26" as="geometry" />
        </mxCell>
        <mxCell id="4hg4gvIcncpDd8z1N-48-94" value="- titel : string" style="text;strokeColor=none;fillColor=none;align=left;verticalAlign=top;spacingLeft=4;spacingRight=4;overflow=hidden;rotatable=0;points=[[0,0.5],[1,0.5]];portConstraint=eastwest;whiteSpace=wrap;html=1;" vertex="1" parent="4hg4gvIcncpDd8z1N-48-91">
          <mxGeometry y="78" width="160" height="26" as="geometry" />
        </mxCell>
        <mxCell id="4hg4gvIcncpDd8z1N-48-102" value="" style="endArrow=none;html=1;rounded=0;exitX=1;exitY=0.5;exitDx=0;exitDy=0;entryX=0;entryY=0.25;entryDx=0;entryDy=0;" edge="1" parent="WIyWlLk6GJQsqaUBKTNV-1">
          <mxGeometry width="50" height="50" relative="1" as="geometry">
            <mxPoint x="764" y="471.0000000000002" as="sourcePoint" />
            <mxPoint x="904" y="470.9999999999998" as="targetPoint" />
          </mxGeometry>
        </mxCell>
        <mxCell id="4hg4gvIcncpDd8z1N-48-103" value="0..1" style="text;html=1;align=center;verticalAlign=middle;resizable=0;points=[];autosize=1;strokeColor=none;fillColor=none;" vertex="1" parent="WIyWlLk6GJQsqaUBKTNV-1">
          <mxGeometry x="764" y="448" width="40" height="30" as="geometry" />
        </mxCell>
        <mxCell id="4hg4gvIcncpDd8z1N-48-104" value="0..*" style="text;html=1;align=center;verticalAlign=middle;resizable=0;points=[];autosize=1;strokeColor=none;fillColor=none;" vertex="1" parent="WIyWlLk6GJQsqaUBKTNV-1">
          <mxGeometry x="864" y="448" width="40" height="30" as="geometry" />
        </mxCell>
        <mxCell id="4hg4gvIcncpDd8z1N-48-108" value="" style="endArrow=none;html=1;rounded=0;exitX=1;exitY=0.5;exitDx=0;exitDy=0;entryX=0;entryY=0.5;entryDx=0;entryDy=0;" edge="1" parent="WIyWlLk6GJQsqaUBKTNV-1" source="4hg4gvIcncpDd8z1N-48-19" target="4hg4gvIcncpDd8z1N-48-12">
          <mxGeometry width="50" height="50" relative="1" as="geometry">
            <mxPoint x="584" y="385" as="sourcePoint" />
            <mxPoint x="674" y="275" as="targetPoint" />
          </mxGeometry>
        </mxCell>
        <mxCell id="4hg4gvIcncpDd8z1N-48-109" value="2) Artikel werden in Katalogen aufgeführt. Sie müssen in mindestens einem Katalog enthalten sein, ansonsten sind sie zu löschen." style="text;html=1;align=center;verticalAlign=middle;whiteSpace=wrap;rounded=0;fillColor=#fff2cc;strokeColor=#d6b656;" vertex="1" parent="WIyWlLk6GJQsqaUBKTNV-1">
          <mxGeometry x="480" y="310" width="230" height="60" as="geometry" />
        </mxCell>
        <mxCell id="4hg4gvIcncpDd8z1N-48-111" value="4) Die Anwendung soll mandantenfähig sein, d.h. Sie können die App mehreren&lt;br/&gt;Mandanten ( = Ihren Kunden, in diesem Fall Lieferdiensten) zur Verfügung&lt;br/&gt;stellen, ohne dass ein Mandant auf die Daten anderer Mandanten zugreifen&lt;br/&gt;kann. Daher sollen mehrere Lieferservices in der App verwaltet werden können, jeder mit eigenem Datenbestand (Katalogen)." style="text;html=1;align=center;verticalAlign=middle;whiteSpace=wrap;rounded=0;fillColor=#fff2cc;strokeColor=#d6b656;" vertex="1" parent="WIyWlLk6GJQsqaUBKTNV-1">
          <mxGeometry x="30" y="120" width="234" height="138" as="geometry" />
        </mxCell>
        <mxCell id="4hg4gvIcncpDd8z1N-48-115" value="Mandat" style="text;html=1;align=center;verticalAlign=middle;whiteSpace=wrap;rounded=0;fillColor=#dae8fc;strokeColor=#6c8ebf;" vertex="1" parent="WIyWlLk6GJQsqaUBKTNV-1">
          <mxGeometry x="334" y="110" width="60" height="30" as="geometry" />
        </mxCell>
        <mxCell id="4hg4gvIcncpDd8z1N-48-116" value="" style="endArrow=diamondThin;endFill=1;endSize=24;html=1;rounded=0;exitX=0.5;exitY=0;exitDx=0;exitDy=0;entryX=0.453;entryY=0.972;entryDx=0;entryDy=0;entryPerimeter=0;" edge="1" parent="WIyWlLk6GJQsqaUBKTNV-1" source="4hg4gvIcncpDd8z1N-48-18" target="4hg4gvIcncpDd8z1N-48-114">
          <mxGeometry width="160" relative="1" as="geometry">
            <mxPoint x="130" y="300" as="sourcePoint" />
            <mxPoint x="364" y="280" as="targetPoint" />
          </mxGeometry>
        </mxCell>
        <mxCell id="4hg4gvIcncpDd8z1N-48-117" value="&lt;br&gt; &lt;span style=&quot;&quot; data-end=&quot;1367&quot; data-start=&quot;1308&quot;&gt;jeder Lieferservice hat eigene Kataloge&lt;/span&gt;&lt;div&gt;&lt;br&gt;&lt;/div&gt;" style="text;html=1;align=center;verticalAlign=middle;whiteSpace=wrap;rounded=0;fillColor=#dae8fc;strokeColor=#6c8ebf;" vertex="1" parent="WIyWlLk6GJQsqaUBKTNV-1">
          <mxGeometry x="194" y="320" width="130" height="40" as="geometry" />
        </mxCell>
        <mxCell id="4hg4gvIcncpDd8z1N-48-119" value="datei als BLOB?" style="text;html=1;align=center;verticalAlign=middle;whiteSpace=wrap;rounded=0;fillColor=#f8cecc;strokeColor=#b85450;" vertex="1" parent="WIyWlLk6GJQsqaUBKTNV-1">
          <mxGeometry x="1090" y="482" width="160" height="52" as="geometry" />
        </mxCell>
      </root>
    </mxGraphModel>
  </diagram>
</mxfile>
